<svg width="20" height="20" viewBox="0 0 20 20" fill="none" xmlns="http://www.w3.org/2000/svg">
<path d="M16.7057 5.68373L11.9057 2.3254C10.5974 1.40873 8.58906 1.45873 7.33073 2.43373L3.15573 5.69206C2.3224 6.34206 1.66406 7.6754 1.66406 8.7254V14.4754C1.66406 16.6004 3.38906 18.3337 5.51406 18.3337H14.4974C16.6224 18.3337 18.3474 16.6087 18.3474 14.4837V8.83373C18.3474 7.70873 17.6224 6.3254 16.7057 5.68373ZM10.6307 15.0004C10.6307 15.3421 10.3474 15.6254 10.0057 15.6254C9.66406 15.6254 9.38073 15.3421 9.38073 15.0004V12.5004C9.38073 12.1587 9.66406 11.8754 10.0057 11.8754C10.3474 11.8754 10.6307 12.1587 10.6307 12.5004V15.0004Z" fill="#007BFF"/>
</svg>
